<?xml version="1.0" encoding="utf-8"?>
<!-- Generator: Adobe Illustrator 27.1.1, SVG Export Plug-In . SVG Version: 6.00 Build 0)  -->
<svg version="1.1" id="Layer_1" xmlns="http://www.w3.org/2000/svg" xmlns:xlink="http://www.w3.org/1999/xlink" x="0px" y="0px"
	 viewBox="0 0 936 1080" style="enable-background:new 0 0 936 1080;" xml:space="preserve">
<style type="text/css">
	.st0{fill:none;}
	.st1{fill:none;stroke:#000000;stroke-miterlimit:10;}
	.st2{fill:#FFFFFF;stroke:#000000;stroke-miterlimit:10;}
	.st3{stroke:#FFFFFF;stroke-miterlimit:10;}
</style>
<path class="st0" d="M283.43,211.09"/>
<path class="st1" d="M283.43,211.09c0,0-77.41-59.23-178.63,0s23.82,248.75,23.82,248.75s-65.5,225.06-5.95,219.14
	c0,0,339.4,396.82,690.72-35.54c0,0,29.77-88.84-41.68-213.21c0,0,101.62,0,47.83-219.14c0,0-137.15-59.23-214.56,0
	C604.97,211.09,496.33,93.22,283.43,211.09z"/>
<path d="M283.43,637.52l83.36-41.46c0,0,59.54-106.61-41.68-153.99c0,0-125.04-11.85-184.59,136.22
	C140.53,578.29,240.56,658.84,283.43,637.52z"/>
<path d="M533.52,590.14c0,0,71.45,24.95,83.36,50.97s154.82-35.76,131-99.63c-23.82-63.87-119.09-99.86-160.77-99.63
	C545.43,442.07,515.66,530.91,533.52,590.14z"/>
<ellipse class="st2" cx="283.43" cy="544.53" rx="43.17" ry="42.94"/>
<ellipse class="st2" cx="639.39" cy="544.53" rx="43.17" ry="42.94"/>
<ellipse class="st3" cx="456.95" cy="679.88" rx="59.54" ry="47.24"/>
<ellipse class="st2" cx="456.95" cy="679.88" rx="28.28" ry="23.62"/>
<path class="st3" d="M158.81,434.38c0,0,5.95-96.53,131-191.29c0,0-107.18-47.38-178.63,17.77S158.81,434.38,158.81,434.38z"/>
<path class="st3" d="M596.22,254.89c0,0,93.49,26.58,159.58,168.45c0,0,69.61-93.9,21.04-177.33
	C728.28,162.57,596.22,254.89,596.22,254.89z"/>
</svg>
